<svg width="1125" height="520" aria-label="A chart." style="overflow: hidden;"><defs id="defs"><clipPath id="_ABSTRACT_RENDERER_ID_74"><rect x="155" y="56" width="862" height="365"></rect></clipPath></defs><rect x="0" y="0" width="1125" height="520" stroke="none" stroke-width="0" fill="#ffffff"></rect><g><rect x="155" y="56" width="862" height="365" stroke="none" stroke-width="0" fill-opacity="0" fill="#ffffff"></rect><g clip-path="url(#_ABSTRACT_RENDERER_ID_74)"><g><rect x="155" y="56" width="1" height="365" stroke="none" stroke-width="0" fill="#cccccc"></rect><rect x="354" y="56" width="1" height="365" stroke="none" stroke-width="0" fill="#cccccc"></rect><rect x="552" y="56" width="1" height="365" stroke="none" stroke-width="0" fill="#cccccc"></rect><rect x="751" y="56" width="1" height="365" stroke="none" stroke-width="0" fill="#cccccc"></rect><rect x="950" y="56" width="1" height="365" stroke="none" stroke-width="0" fill="#cccccc"></rect><rect x="155" y="420" width="862" height="1" stroke="none" stroke-width="0" fill="#cccccc"></rect><rect x="155" y="329" width="862" height="1" stroke="none" stroke-width="0" fill="#cccccc"></rect><rect x="155" y="238" width="862" height="1" stroke="none" stroke-width="0" fill="#cccccc"></rect><rect x="155" y="147" width="862" height="1" stroke="none" stroke-width="0" fill="#cccccc"></rect><rect x="155" y="56" width="862" height="1" stroke="none" stroke-width="0" fill="#cccccc"></rect></g><g><rect x="155" y="56" width="1" height="365" stroke="none" stroke-width="0" fill="#333333"></rect><rect x="155" y="420" width="862" height="1" stroke="none" stroke-width="0" fill="#333333"></rect></g><g><path d="M155.5,238.49999999999997L221.73076923076923,271.9516000000001L287.96153846153845,271.9516000000001L354.1923076923077,171.58769999999956L420.4230769230769,238.49999999999997L486.65384615384613,238.49999999999997L552.8846153846154,104.67540000000014L619.1153846153845,372.32459999999986L685.3461538461538,271.9516000000001L751.5769230769231,271.9516000000001L817.8076923076923,171.58769999999956L884.0384615384614,205.0483999999999L950.2692307692307,205.0483999999999L1016.5,238.49999999999997" stroke="#000000" stroke-width="2" fill-opacity="1" fill="none"></path></g></g><g></g><g><g><text text-anchor="middle" x="155.5" y="442.75" font-family="Georgia" font-size="15" stroke="none" stroke-width="0" fill="#444444">200</text></g><g><text text-anchor="middle" x="354.1923076923077" y="442.75" font-family="Georgia" font-size="15" stroke="none" stroke-width="0" fill="#444444">500</text></g><g><text text-anchor="middle" x="552.8846153846154" y="442.75" font-family="Georgia" font-size="15" stroke="none" stroke-width="0" fill="#444444">800</text></g><g><text text-anchor="middle" x="751.5769230769231" y="442.75" font-family="Georgia" font-size="15" stroke="none" stroke-width="0" fill="#444444">1100</text></g><g><text text-anchor="middle" x="950.2692307692307" y="442.75" font-family="Georgia" font-size="15" stroke="none" stroke-width="0" fill="#444444">1400</text></g><g><text text-anchor="end" x="140" y="425.75" font-family="Georgia" font-size="15" stroke="none" stroke-width="0" fill="#444444">0.73</text></g><g><text text-anchor="end" x="140" y="334.75" font-family="Georgia" font-size="15" stroke="none" stroke-width="0" fill="#444444">0.74</text></g><g><text text-anchor="end" x="140" y="243.74999999999997" font-family="Georgia" font-size="15" stroke="none" stroke-width="0" fill="#444444">0.75</text></g><g><text text-anchor="end" x="140" y="152.75" font-family="Georgia" font-size="15" stroke="none" stroke-width="0" fill="#444444">0.76</text></g><g><text text-anchor="end" x="140" y="61.74999999999994" font-family="Georgia" font-size="15" stroke="none" stroke-width="0" fill="#444444">0.77</text></g></g></g><g></g></svg>
