<svg width="1125" height="520" aria-label="A chart." style="overflow: hidden;"><defs id="defs"><clipPath id="_ABSTRACT_RENDERER_ID_827"><rect x="155" y="56" width="862" height="365"></rect></clipPath></defs><rect x="0" y="0" width="1125" height="520" stroke="none" stroke-width="0" fill="#ffffff"></rect><g><rect x="155" y="56" width="862" height="365" stroke="none" stroke-width="0" fill-opacity="0" fill="#ffffff"></rect><g clip-path="url(#_ABSTRACT_RENDERER_ID_827)"><g><rect x="155" y="56" width="1" height="365" stroke="none" stroke-width="0" fill="#cccccc"></rect><rect x="327" y="56" width="1" height="365" stroke="none" stroke-width="0" fill="#cccccc"></rect><rect x="499" y="56" width="1" height="365" stroke="none" stroke-width="0" fill="#cccccc"></rect><rect x="672" y="56" width="1" height="365" stroke="none" stroke-width="0" fill="#cccccc"></rect><rect x="844" y="56" width="1" height="365" stroke="none" stroke-width="0" fill="#cccccc"></rect><rect x="155" y="420" width="862" height="1" stroke="none" stroke-width="0" fill="#cccccc"></rect><rect x="155" y="329" width="862" height="1" stroke="none" stroke-width="0" fill="#cccccc"></rect><rect x="155" y="238" width="862" height="1" stroke="none" stroke-width="0" fill="#cccccc"></rect><rect x="155" y="147" width="862" height="1" stroke="none" stroke-width="0" fill="#cccccc"></rect><rect x="155" y="56" width="862" height="1" stroke="none" stroke-width="0" fill="#cccccc"></rect></g><g><rect x="155" y="56" width="1" height="365" stroke="none" stroke-width="0" fill="#333333"></rect><rect x="155" y="420" width="862" height="1" stroke="none" stroke-width="0" fill="#333333"></rect></g><g><path d="M155.5,64.91099999999938L327.7,160.5L499.9,112.71199999999988L672.1,399.4659999999999L844.3,303.87699999999927L1016.5,303.87699999999927" stroke="#000000" stroke-width="2" fill-opacity="1" fill="none"></path></g></g><g></g><g><g><text text-anchor="middle" x="155.5" y="442.75" font-family="Georgia" font-size="15" stroke="none" stroke-width="0" fill="#444444">50000</text></g><g><text text-anchor="middle" x="327.7" y="442.75" font-family="Georgia" font-size="15" stroke="none" stroke-width="0" fill="#444444">60000</text></g><g><text text-anchor="middle" x="499.9" y="442.75" font-family="Georgia" font-size="15" stroke="none" stroke-width="0" fill="#444444">70000</text></g><g><text text-anchor="middle" x="672.1" y="442.75" font-family="Georgia" font-size="15" stroke="none" stroke-width="0" fill="#444444">80000</text></g><g><text text-anchor="middle" x="844.3" y="442.75" font-family="Georgia" font-size="15" stroke="none" stroke-width="0" fill="#444444">90000</text></g><g><text text-anchor="end" x="140" y="425.75" font-family="Georgia" font-size="15" stroke="none" stroke-width="0" fill="#444444">0.73</text></g><g><text text-anchor="end" x="140" y="334.75" font-family="Georgia" font-size="15" stroke="none" stroke-width="0" fill="#444444">0.737</text></g><g><text text-anchor="end" x="140" y="243.75" font-family="Georgia" font-size="15" stroke="none" stroke-width="0" fill="#444444">0.744</text></g><g><text text-anchor="end" x="140" y="152.75" font-family="Georgia" font-size="15" stroke="none" stroke-width="0" fill="#444444">0.751</text></g><g><text text-anchor="end" x="140" y="61.75" font-family="Georgia" font-size="15" stroke="none" stroke-width="0" fill="#444444">0.758</text></g></g></g><g></g></svg>
